<svg xmlns="http://www.w3.org/2000/svg" width="15" height="17" viewBox="0 0 15 17"><g><g><path fill="#fff" d="M1.002 5.013C.448 5.013 0 5.439 0 5.966v4.078c0 .526.448.954 1.002.954.553 0 1.001-.428 1.001-.954V5.966c0-.527-.448-.953-1.001-.953zM9.402.39L8.777.177A5.021 5.021 0 0 0 6.229.173L5.6.385c-1.532.63-2.597 2-2.597 3.591 0 .02 8.984.002 8.984 0 0-1.587-1.06-2.953-2.586-3.586zm4.606 4.623c-.554 0-1.002.426-1.002.953v4.078c0 .526.448.954 1.002.954.552 0 1.001-.428 1.001-.954V5.966c0-.527-.449-.953-1.001-.953zM3.004 11.408c0 1.178 1.057 1.628 1.975 1.632v2.977c0 .548.404.994 1.018.994.613 0 .986-.446.986-.994V13.04h1.044v2.977c0 .548.404.994 1.018.994.613 0 .955-.446.955-.994V13.04h.007c.921 0 1.98-.475 1.98-1.632V5.011H3.005z"/></g></g></svg>